<svg width="34" height="34" viewBox="0 0 34 34" fill="none" xmlns="http://www.w3.org/2000/svg">
<path d="M17.4988 8.92133C17.4988 8.38613 17.931 7.9519 18.4683 7.9519H20.1365C21.0978 7.9519 21.9542 8.56143 22.2692 9.47067L22.5964 10.411L24.6564 9.381C24.8382 9.29133 25.0361 9.24447 25.2381 9.24447H25.5774C25.9328 9.24447 26.2237 9.53369 26.2237 9.89076V12.4759C26.2237 12.8314 25.9328 13.1222 25.5774 13.1222H25.2381C25.0361 13.1222 24.8382 13.0737 24.6564 12.9848L23.2467 12.282L24.4464 15.7235C24.5716 15.7114 24.7332 15.7073 24.9311 15.7073C26.6963 15.7073 28.2958 16.4142 29.4591 17.5573C29.8429 17.933 29.8469 18.5469 29.4713 18.9307C29.0956 19.3104 28.4816 19.3184 28.1019 18.9428C27.282 18.139 26.1671 17.6462 24.9311 17.6462C22.8024 17.6462 20.9767 19.1205 20.5323 21.1038C20.4515 21.4471 20.4071 21.8026 20.4071 22.1702H14.5906C14.5906 24.311 12.8537 26.0479 10.7128 26.0479C8.53568 26.0479 6.83514 24.311 6.83514 22.1702H5.54257C4.82883 22.1702 4.25 21.5925 4.25 20.8776V19.585C4.25 16.7293 6.56491 14.4148 9.42028 14.4148H13.298C14.0129 14.4148 14.5906 14.9924 14.5906 15.7073V18.2925C14.5906 19.0074 15.1682 19.585 15.8831 19.585H19.0055C19.6881 18.0299 20.9605 16.7898 22.5439 16.1638L20.4394 10.1077C20.395 9.97801 20.2738 9.89076 20.1365 9.89076H18.4683C17.931 9.89076 17.4988 9.45694 17.4988 8.92133ZM12.6517 22.1702H8.77399C8.77399 23.2406 9.64244 24.109 10.7128 24.109C11.7833 24.109 12.6517 23.2406 12.6517 22.1702ZM13.298 10.537C14.0129 10.537 14.5906 11.1147 14.5906 11.8296C14.5906 12.5446 14.0129 13.1222 13.298 13.1222H9.42028C8.70532 13.1222 8.12771 12.5446 8.12771 11.8296C8.12771 11.1147 8.70532 10.537 9.42028 10.537H13.298ZM21.0534 22.1702C21.0534 19.993 22.7539 18.2925 24.9311 18.2925C27.0719 18.2925 28.8088 19.993 28.8088 22.1702C28.8088 24.311 27.0719 26.0479 24.9311 26.0479C22.7539 26.0479 21.0534 24.311 21.0534 22.1702ZM24.9311 24.109C26.0015 24.109 26.87 23.2406 26.87 22.1702C26.87 21.0998 26.0015 20.2313 24.9311 20.2313C23.8607 20.2313 22.9923 21.0998 22.9923 22.1702C22.9923 23.2406 23.8607 24.109 24.9311 24.109Z" fill="#333333"/>
</svg>
