<svg width="46" height="46" viewBox="0 0 46 46" fill="none" xmlns="http://www.w3.org/2000/svg">
<path d="M21.9219 13.2969C21.9219 12.7039 22.407 12.2188 23 12.2188C23.593 12.2188 24.0781 12.7039 24.0781 13.2969V22.4205L30.0685 26.4163C30.5604 26.7465 30.6951 27.4136 30.3649 27.9122C30.0348 28.4041 29.3677 28.5389 28.869 28.2087L22.4003 23.8962C22.1038 23.694 21.8612 23.3571 21.8612 23L21.9219 13.2969ZM23 5.75C32.5279 5.75 40.25 13.4721 40.25 23C40.25 32.5279 32.5279 40.25 23 40.25C13.4721 40.25 5.75 32.5279 5.75 23C5.75 13.4721 13.4721 5.75 23 5.75ZM7.90625 23C7.90625 31.3353 14.6647 38.0938 23 38.0938C31.3353 38.0938 38.0938 31.3353 38.0938 23C38.0938 14.6647 31.3353 7.90625 23 7.90625C14.6647 7.90625 7.90625 14.6647 7.90625 23Z" fill="#EE9972"/>
</svg>
