<svg width="48" height="48" viewBox="0 0 48 48" fill="none" xmlns="http://www.w3.org/2000/svg">
<path d="M15 15C17.4877 15 19.5 12.9877 19.5 10.5C19.5 8.01234 17.4891 6 15 6C12.5109 6 10.5 8.01234 10.5 10.5C10.5 12.9877 12.513 15 15 15ZM15 8.25C16.2403 8.25 17.25 9.25969 17.25 10.5C17.25 11.7403 16.2375 12.75 15 12.75C13.7625 12.75 12.75 11.7403 12.75 10.5C12.75 9.25969 13.7597 8.25 15 8.25ZM17.25 17.25H12.75C10.2645 17.25 8.25 19.268 8.25 21.75V28.5C8.25 29.7424 9.25758 30.75 10.5 30.75V40.875C10.5 41.4938 11.0034 42 11.625 42C12.2466 42 12.75 41.4938 12.75 40.875V30.75H17.25V40.875C17.25 41.4938 17.7563 42 18.375 42C18.9937 42 19.5 41.4938 19.5 40.875V30.75C20.7424 30.75 21.75 29.7424 21.75 28.5V21.75C21.75 19.268 19.732 17.25 17.25 17.25ZM19.5 28.5H10.5V21.75C10.5 20.5097 11.5097 19.5 12.75 19.5H17.25C18.4903 19.5 19.5 20.5097 19.5 21.75V28.5ZM35.25 17.25H30.75C28.2645 17.25 26.25 19.2645 26.25 21.75V28.5C26.25 29.7424 27.2576 30.75 28.5 30.75V40.875C28.5 41.4968 29.0032 42 29.625 42C30.2468 42 30.75 41.4968 30.75 40.875V30.75H35.25V40.875C35.25 41.4968 35.7532 42 36.375 42C36.9968 42 37.5 41.4968 37.5 40.875V30.75C38.7424 30.75 39.75 29.7424 39.75 28.5V21.75C39.75 19.268 37.732 17.25 35.25 17.25ZM37.5 28.5H28.5V21.75C28.5 20.5097 29.5097 19.5 30.75 19.5H35.25C36.4903 19.5 37.5 20.5097 37.5 21.75V28.5ZM33 15C35.4877 15 37.5 12.9877 37.5 10.5C37.5 8.01234 35.4877 6 33 6C30.5123 6 28.5 8.01234 28.5 10.5C28.5 12.9877 30.5109 15 33 15ZM33 8.25C34.2403 8.25 35.25 9.25969 35.25 10.5C35.25 11.7403 34.2403 12.75 33 12.75C31.7597 12.75 30.75 11.7403 30.75 10.5C30.75 9.25969 31.7625 8.25 33 8.25Z" fill="#EE9972"/>
</svg>
