<svg width="46" height="46" viewBox="0 0 46 46" fill="none" xmlns="http://www.w3.org/2000/svg">
<path d="M40.1695 32.6592C40.0004 32.2072 39.4872 31.9742 39.0227 32.1386L35.5489 33.3695L33.5278 28.1782C36.672 26.5881 38.2185 22.9265 36.9541 19.5423C36.33 17.8728 34.1119 13.7652 31.6549 9.97852C31.2189 9.30587 30.3765 9.02268 29.6213 9.29077L26.3741 10.4413C25.8533 10.6259 25.6308 11.2402 25.9128 11.7154C26.1193 12.0634 26.5526 12.2325 26.9339 12.0973L30.1693 10.9511C31.1629 12.4868 32.1155 14.0786 32.9381 15.5328L26.215 17.9333C25.9242 18.0363 25.7099 18.2857 25.6518 18.5887L25.6479 18.609C25.522 19.2643 26.1553 19.8092 26.7845 19.5858L33.84 17.0851C34.5412 18.3943 35.0763 19.4925 35.3196 20.1425C36.3051 22.7792 35.0397 25.7092 32.4386 26.8096C32.0728 26.9646 32.2154 26.9137 31.8387 27.0221C29.5128 27.692 27.0536 26.7277 25.7758 24.7862C25.4567 24.3024 24.7654 24.2561 24.3862 24.6941C24.1304 24.9893 24.0962 25.4223 24.3129 25.747C25.943 28.1916 28.9637 29.422 31.8971 28.7779L33.9171 33.966L30.6656 35.1182C30.2013 35.2828 29.9622 35.7827 30.1309 36.2348C30.2999 36.6869 30.8133 36.9204 31.2777 36.7554L39.6871 33.7757C40.1479 33.6086 40.3853 33.1123 40.1695 32.6592ZM23.5772 11.8498L16.3545 9.28985C15.5994 9.02344 14.7579 9.29978 14.3209 9.97C11.8666 13.7615 9.64372 17.8254 9.01908 19.4976C7.7547 22.8797 9.30151 26.5423 12.4454 28.1336L10.4248 33.3713L6.95098 32.1403C6.4867 31.9759 5.97302 32.2089 5.80419 32.661C5.63519 33.1133 5.87469 33.613 6.33896 33.7775L14.7484 36.7573C15.2126 36.9219 15.7263 36.6887 15.8952 36.2366C16.0642 35.7845 15.8248 35.2846 15.3605 35.12L12.1089 33.9679L14.129 28.7798C17.5937 29.5414 21.2061 27.7031 22.4737 24.3151C23.0957 22.6521 24.1022 18.1496 24.7225 13.7211C24.8341 12.9049 24.3486 12.1244 23.5772 11.8498ZM20.7885 23.7158C19.803 26.3524 16.8999 27.804 14.1807 27.0208C13.8031 26.9145 13.9002 26.9631 13.582 26.8066C10.9804 25.7062 9.71492 22.7772 10.701 20.1395C10.9438 19.4895 11.4788 18.3913 12.1806 17.0821L21.6742 20.447C21.3495 21.8872 21.0312 23.0685 20.7885 23.7158ZM22.0453 18.7263L13.0372 15.5329C13.8571 14.0776 14.7633 12.4858 15.8043 10.9501L22.9461 13.4816C22.6926 15.2794 22.3744 17.0972 22.0453 18.7263Z" fill="#EE9972"/>
</svg>
