<svg width="26" height="26" viewBox="0 0 26 26" fill="none" xmlns="http://www.w3.org/2000/svg">
<path d="M22.4621 22.4632C22.0811 22.8442 21.4647 22.8442 21.0833 22.4632L12.9998 14.3779L4.91456 22.4632C4.53358 22.8442 3.91716 22.8442 3.53574 22.4632C3.15475 22.0822 3.15475 21.4658 3.53574 21.0844L11.6228 13.0009L3.53696 4.91564C3.15597 4.53465 3.15597 3.91823 3.53696 3.53682C3.91795 3.15583 4.53437 3.15583 4.91578 3.53682L12.9998 11.6239L21.0851 3.53865C21.4661 3.15766 22.0825 3.15766 22.4639 3.53865C22.8449 3.91963 22.8449 4.53605 22.4639 4.91747L14.3768 13.0009L22.4621 21.0862C22.846 21.464 22.846 22.0854 22.4621 22.4632Z" fill="#333333"/>
</svg>
