<svg width="26" height="22" viewBox="0 0 26 22" fill="none" xmlns="http://www.w3.org/2000/svg">
  <path d="M0 1.45455C0 0.927159 0.415768 0.5 0.928571 0.5H25.0714C25.5821 0.5 26 0.927159 26 1.45455C26 1.98193 25.5821 2.40909 25.0714 2.40909H0.928571C0.415768 2.40909 0 1.98193 0 1.45455ZM0 11C0 10.475 0.415768 10.0455 0.928571 10.0455H25.0714C25.5821 10.0455 26 10.475 26 11C26 11.525 25.5821 11.9545 25.0714 11.9545H0.928571C0.415768 11.9545 0 11.525 0 11ZM25.0714 21.5H0.928571C0.415768 21.5 0 21.0705 0 20.5455C0 20.0205 0.415768 19.5909 0.928571 19.5909H25.0714C25.5821 19.5909 26 20.0205 26 20.5455C26 21.0705 25.5821 21.5 25.0714 21.5Z" fill="#333333"/>
</svg>
