<svg width="46" height="46" viewBox="0 0 46 46" fill="none" xmlns="http://www.w3.org/2000/svg">
<path d="M15.4531 5.75C16.0461 5.75 16.5312 6.23273 16.5312 6.82812V10.0625H29.4688V6.82812C29.4688 6.23273 29.9539 5.75 30.5469 5.75C31.1398 5.75 31.625 6.23273 31.625 6.82812V10.0625H33.7812C36.1599 10.0625 38.0938 11.993 38.0938 14.375V35.9375C38.0938 38.3161 36.1599 40.25 33.7812 40.25H12.2188C9.83677 40.25 7.90625 38.3161 7.90625 35.9375V14.375C7.90625 11.993 9.83677 10.0625 12.2188 10.0625H14.375V6.82812C14.375 6.23273 14.8602 5.75 15.4531 5.75ZM35.9375 18.6875H10.0625V35.9375C10.0625 37.1302 11.0281 38.0938 12.2188 38.0938H33.7812C34.9739 38.0938 35.9375 37.1302 35.9375 35.9375V18.6875ZM33.7812 12.2188H12.2188C11.0281 12.2188 10.0625 13.1823 10.0625 14.375V16.5312H35.9375V14.375C35.9375 13.1823 34.9739 12.2188 33.7812 12.2188Z" fill="#EE9972"/>
</svg>
