<svg width="36" height="36" viewBox="0 0 36 36" fill="none" xmlns="http://www.w3.org/2000/svg">
<path d="M16.9084 21.9709C16.5814 22.3031 16.0436 22.3031 15.7166 21.9709L12.3416 18.5959C12.0094 18.2689 12.0094 17.7311 12.3416 17.4041C12.6686 17.0719 13.2064 17.0719 13.5334 17.4041L16.3125 20.1832L22.4666 14.0291C22.7936 13.6969 23.3314 13.6969 23.6584 14.0291C23.9906 14.3561 23.9906 14.8939 23.6584 15.2209L16.9084 21.9709ZM31.5 18C31.5 25.4566 25.4566 31.5 18 31.5C10.5434 31.5 4.5 25.4566 4.5 18C4.5 10.5434 10.5434 4.5 18 4.5C25.4566 4.5 31.5 10.5434 31.5 18ZM18 6.1875C11.4768 6.1875 6.1875 11.4768 6.1875 18C6.1875 24.5232 11.4768 29.8125 18 29.8125C24.5232 29.8125 29.8125 24.5232 29.8125 18C29.8125 11.4768 24.5232 6.1875 18 6.1875Z" fill="#495E57"/>
</svg>
